<?xml version="1.0" encoding="utf-8" standalone="no"?>
<!DOCTYPE svg PUBLIC "-//W3C//DTD SVG 1.1//EN"
  "http://www.w3.org/Graphics/SVG/1.1/DTD/svg11.dtd">
<svg xmlns:xlink="http://www.w3.org/1999/xlink" width="777.6pt" height="432pt" viewBox="0 0 777.6 432" xmlns="http://www.w3.org/2000/svg" version="1.1">
 <metadata>
  <rdf:RDF xmlns:dc="http://purl.org/dc/elements/1.1/" xmlns:cc="http://creativecommons.org/ns#" xmlns:rdf="http://www.w3.org/1999/02/22-rdf-syntax-ns#">
   <cc:Work>
    <dc:type rdf:resource="http://purl.org/dc/dcmitype/StillImage"/>
    <dc:date>2026-10-02T03:36:29.124498</dc:date>
    <dc:format>image/svg+xml</dc:format>
    <dc:creator>
     <cc:Agent>
      <dc:title>Matplotlib v3.10.9, https://matplotlib.org/</dc:title>
     </cc:Agent>
    </dc:creator>
   </cc:Work>
  </rdf:RDF>
 </metadata>
 <defs>
  <style type="text/css">*{stroke-linejoin: round; stroke-linecap: butt}</style>
 </defs>
 <g id="figure_1">
  <g id="patch_1">
   <path d="M 0 432
L 777.6 432
L 777.6 0
L 0 0
z
" style="fill: #ffffff"/>
  </g>
  <g id="axes_1">
   <g id="patch_2">
    <path d="M 73.872 345.6
L 750.384 345.6
L 750.384 95.04
L 73.872 95.04
z
" style="fill: #ffffff"/>
   </g>
   <g id="matplotlib.axis_1">
    <g id="xtick_1">
     <g id="line2d_1">
      <defs>
       <path id="mb4ecdf7d9d" d="M 0 0
L 0 3
" style="stroke: #6c7b89; stroke-width: 0.8"/>
      </defs>
      <g>
       <use xlink:href="#mb4ecdf7d9d" x="91.91232" y="345.6" style="fill: #6c7b89; stroke: #6c7b89; stroke-width: 0.8"/>
      </g>
     </g>
     <g id="text_1">
      <text style="font-size: 11px; font-family: 'DejaVu Sans'; text-anchor: middle; fill: #6c7b89" x="91.91232" y="360.458281" transform="rotate(-0 91.91232 360.458281)">Seed</text>
     </g>
    </g>
    <g id="xtick_2">
     <g id="line2d_2">
      <g>
       <use xlink:href="#mb4ecdf7d9d" x="137.01312" y="345.6" style="fill: #6c7b89; stroke: #6c7b89; stroke-width: 0.8"/>
      </g>
     </g>
     <g id="text_2">
      <text style="font-size: 11px; font-family: 'DejaVu Sans'; text-anchor: middle; fill: #6c7b89" x="137.01312" y="360.458281" transform="rotate(-0 137.01312 360.458281)">1</text>
     </g>
    </g>
    <g id="xtick_3">
     <g id="line2d_3">
      <g>
       <use xlink:href="#mb4ecdf7d9d" x="182.11392" y="345.6" style="fill: #6c7b89; stroke: #6c7b89; stroke-width: 0.8"/>
      </g>
     </g>
     <g id="text_3">
      <text style="font-size: 11px; font-family: 'DejaVu Sans'; text-anchor: middle; fill: #6c7b89" x="182.11392" y="360.458281" transform="rotate(-0 182.11392 360.458281)">2</text>
     </g>
    </g>
    <g id="xtick_4">
     <g id="line2d_4">
      <g>
       <use xlink:href="#mb4ecdf7d9d" x="227.21472" y="345.6" style="fill: #6c7b89; stroke: #6c7b89; stroke-width: 0.8"/>
      </g>
     </g>
     <g id="text_4">
      <text style="font-size: 11px; font-family: 'DejaVu Sans'; text-anchor: middle; fill: #6c7b89" x="227.21472" y="360.458281" transform="rotate(-0 227.21472 360.458281)">3</text>
     </g>
    </g>
    <g id="xtick_5">
     <g id="line2d_5">
      <g>
       <use xlink:href="#mb4ecdf7d9d" x="272.31552" y="345.6" style="fill: #6c7b89; stroke: #6c7b89; stroke-width: 0.8"/>
      </g>
     </g>
     <g id="text_5">
      <text style="font-size: 11px; font-family: 'DejaVu Sans'; text-anchor: middle; fill: #6c7b89" x="272.31552" y="360.458281" transform="rotate(-0 272.31552 360.458281)">4</text>
     </g>
    </g>
    <g id="xtick_6">
     <g id="line2d_6">
      <g>
       <use xlink:href="#mb4ecdf7d9d" x="317.41632" y="345.6" style="fill: #6c7b89; stroke: #6c7b89; stroke-width: 0.8"/>
      </g>
     </g>
     <g id="text_6">
      <text style="font-size: 11px; font-family: 'DejaVu Sans'; text-anchor: middle; fill: #6c7b89" x="317.41632" y="360.458281" transform="rotate(-0 317.41632 360.458281)">5</text>
     </g>
    </g>
    <g id="xtick_7">
     <g id="line2d_7">
      <g>
       <use xlink:href="#mb4ecdf7d9d" x="362.51712" y="345.6" style="fill: #6c7b89; stroke: #6c7b89; stroke-width: 0.8"/>
      </g>
     </g>
     <g id="text_7">
      <text style="font-size: 11px; font-family: 'DejaVu Sans'; text-anchor: middle; fill: #6c7b89" x="362.51712" y="360.458281" transform="rotate(-0 362.51712 360.458281)">6</text>
     </g>
    </g>
    <g id="xtick_8">
     <g id="line2d_8">
      <g>
       <use xlink:href="#mb4ecdf7d9d" x="407.61792" y="345.6" style="fill: #6c7b89; stroke: #6c7b89; stroke-width: 0.8"/>
      </g>
     </g>
     <g id="text_8">
      <text style="font-size: 11px; font-family: 'DejaVu Sans'; text-anchor: middle; fill: #6c7b89" x="407.61792" y="360.458281" transform="rotate(-0 407.61792 360.458281)">7</text>
     </g>
    </g>
    <g id="xtick_9">
     <g id="line2d_9">
      <g>
       <use xlink:href="#mb4ecdf7d9d" x="452.71872" y="345.6" style="fill: #6c7b89; stroke: #6c7b89; stroke-width: 0.8"/>
      </g>
     </g>
     <g id="text_9">
      <text style="font-size: 11px; font-family: 'DejaVu Sans'; text-anchor: middle; fill: #6c7b89" x="452.71872" y="360.458281" transform="rotate(-0 452.71872 360.458281)">8</text>
     </g>
    </g>
    <g id="xtick_10">
     <g id="line2d_10">
      <g>
       <use xlink:href="#mb4ecdf7d9d" x="497.81952" y="345.6" style="fill: #6c7b89; stroke: #6c7b89; stroke-width: 0.8"/>
      </g>
     </g>
     <g id="text_10">
      <text style="font-size: 11px; font-family: 'DejaVu Sans'; text-anchor: middle; fill: #6c7b89" x="497.81952" y="360.458281" transform="rotate(-0 497.81952 360.458281)">9</text>
     </g>
    </g>
    <g id="xtick_11">
     <g id="line2d_11">
      <g>
       <use xlink:href="#mb4ecdf7d9d" x="542.92032" y="345.6" style="fill: #6c7b89; stroke: #6c7b89; stroke-width: 0.8"/>
      </g>
     </g>
     <g id="text_11">
      <text style="font-size: 11px; font-family: 'DejaVu Sans'; text-anchor: middle; fill: #6c7b89" x="542.92032" y="360.458281" transform="rotate(-0 542.92032 360.458281)">10</text>
     </g>
    </g>
    <g id="xtick_12">
     <g id="line2d_12">
      <g>
       <use xlink:href="#mb4ecdf7d9d" x="588.02112" y="345.6" style="fill: #6c7b89; stroke: #6c7b89; stroke-width: 0.8"/>
      </g>
     </g>
     <g id="text_12">
      <text style="font-size: 11px; font-family: 'DejaVu Sans'; text-anchor: middle; fill: #6c7b89" x="588.02112" y="360.458281" transform="rotate(-0 588.02112 360.458281)">11</text>
     </g>
    </g>
    <g id="xtick_13">
     <g id="line2d_13">
      <g>
       <use xlink:href="#mb4ecdf7d9d" x="633.12192" y="345.6" style="fill: #6c7b89; stroke: #6c7b89; stroke-width: 0.8"/>
      </g>
     </g>
     <g id="text_13">
      <text style="font-size: 11px; font-family: 'DejaVu Sans'; text-anchor: middle; fill: #6c7b89" x="633.12192" y="360.458281" transform="rotate(-0 633.12192 360.458281)">12</text>
     </g>
    </g>
    <g id="xtick_14">
     <g id="line2d_14">
      <g>
       <use xlink:href="#mb4ecdf7d9d" x="678.22272" y="345.6" style="fill: #6c7b89; stroke: #6c7b89; stroke-width: 0.8"/>
      </g>
     </g>
     <g id="text_14">
      <text style="font-size: 11px; font-family: 'DejaVu Sans'; text-anchor: middle; fill: #6c7b89" x="678.22272" y="360.458281" transform="rotate(-0 678.22272 360.458281)">13</text>
     </g>
    </g>
    <g id="xtick_15">
     <g id="line2d_15">
      <g>
       <use xlink:href="#mb4ecdf7d9d" x="723.32352" y="345.6" style="fill: #6c7b89; stroke: #6c7b89; stroke-width: 0.8"/>
      </g>
     </g>
     <g id="text_15">
      <text style="font-size: 11px; font-family: 'DejaVu Sans'; text-anchor: middle; fill: #6c7b89" x="723.32352" y="360.458281" transform="rotate(-0 723.32352 360.458281)">14</text>
     </g>
    </g>
    <g id="text_16">
     <text style="font-size: 11px; font-family: 'DejaVu Sans'; text-anchor: middle; fill: #172b3a" x="412.128" y="383.104219" transform="rotate(-0 412.128 383.104219)">Full-train evaluation completion order</text>
    </g>
   </g>
   <g id="matplotlib.axis_2">
    <g id="ytick_1">
     <g id="line2d_16">
      <path d="M 73.872 327.731646
L 750.384 327.731646
" clip-path="url(#p5b2e30ddfc)" style="fill: none; stroke: #e6ebef; stroke-width: 0.8; stroke-linecap: square"/>
     </g>
     <g id="line2d_17">
      <defs>
       <path id="m8b213929a2" d="M 0 0
L -3 0
" style="stroke: #6c7b89; stroke-width: 0.8"/>
      </defs>
      <g>
       <use xlink:href="#m8b213929a2" x="73.872" y="327.731646" style="fill: #6c7b89; stroke: #6c7b89; stroke-width: 0.8"/>
      </g>
     </g>
     <g id="text_17">
      <text style="font-size: 11px; font-family: 'DejaVu Sans'; text-anchor: end; fill: #6c7b89" x="67.372" y="331.910787" transform="rotate(-0 67.372 331.910787)">0.46</text>
     </g>
    </g>
    <g id="ytick_2">
     <g id="line2d_18">
      <path d="M 73.872 300.861941
L 750.384 300.861941
" clip-path="url(#p5b2e30ddfc)" style="fill: none; stroke: #e6ebef; stroke-width: 0.8; stroke-linecap: square"/>
     </g>
     <g id="line2d_19">
      <g>
       <use xlink:href="#m8b213929a2" x="73.872" y="300.861941" style="fill: #6c7b89; stroke: #6c7b89; stroke-width: 0.8"/>
      </g>
     </g>
     <g id="text_18">
      <text style="font-size: 11px; font-family: 'DejaVu Sans'; text-anchor: end; fill: #6c7b89" x="67.372" y="305.041082" transform="rotate(-0 67.372 305.041082)">0.48</text>
     </g>
    </g>
    <g id="ytick_3">
     <g id="line2d_20">
      <path d="M 73.872 273.992236
L 750.384 273.992236
" clip-path="url(#p5b2e30ddfc)" style="fill: none; stroke: #e6ebef; stroke-width: 0.8; stroke-linecap: square"/>
     </g>
     <g id="line2d_21">
      <g>
       <use xlink:href="#m8b213929a2" x="73.872" y="273.992236" style="fill: #6c7b89; stroke: #6c7b89; stroke-width: 0.8"/>
      </g>
     </g>
     <g id="text_19">
      <text style="font-size: 11px; font-family: 'DejaVu Sans'; text-anchor: end; fill: #6c7b89" x="67.372" y="278.171377" transform="rotate(-0 67.372 278.171377)">0.50</text>
     </g>
    </g>
    <g id="ytick_4">
     <g id="line2d_22">
      <path d="M 73.872 247.122531
L 750.384 247.122531
" clip-path="url(#p5b2e30ddfc)" style="fill: none; stroke: #e6ebef; stroke-width: 0.8; stroke-linecap: square"/>
     </g>
     <g id="line2d_23">
      <g>
       <use xlink:href="#m8b213929a2" x="73.872" y="247.122531" style="fill: #6c7b89; stroke: #6c7b89; stroke-width: 0.8"/>
      </g>
     </g>
     <g id="text_20">
      <text style="font-size: 11px; font-family: 'DejaVu Sans'; text-anchor: end; fill: #6c7b89" x="67.372" y="251.301671" transform="rotate(-0 67.372 251.301671)">0.52</text>
     </g>
    </g>
    <g id="ytick_5">
     <g id="line2d_24">
      <path d="M 73.872 220.252826
L 750.384 220.252826
" clip-path="url(#p5b2e30ddfc)" style="fill: none; stroke: #e6ebef; stroke-width: 0.8; stroke-linecap: square"/>
     </g>
     <g id="line2d_25">
      <g>
       <use xlink:href="#m8b213929a2" x="73.872" y="220.252826" style="fill: #6c7b89; stroke: #6c7b89; stroke-width: 0.8"/>
      </g>
     </g>
     <g id="text_21">
      <text style="font-size: 11px; font-family: 'DejaVu Sans'; text-anchor: end; fill: #6c7b89" x="67.372" y="224.431966" transform="rotate(-0 67.372 224.431966)">0.54</text>
     </g>
    </g>
    <g id="ytick_6">
     <g id="line2d_26">
      <path d="M 73.872 193.383121
L 750.384 193.383121
" clip-path="url(#p5b2e30ddfc)" style="fill: none; stroke: #e6ebef; stroke-width: 0.8; stroke-linecap: square"/>
     </g>
     <g id="line2d_27">
      <g>
       <use xlink:href="#m8b213929a2" x="73.872" y="193.383121" style="fill: #6c7b89; stroke: #6c7b89; stroke-width: 0.8"/>
      </g>
     </g>
     <g id="text_22">
      <text style="font-size: 11px; font-family: 'DejaVu Sans'; text-anchor: end; fill: #6c7b89" x="67.372" y="197.562261" transform="rotate(-0 67.372 197.562261)">0.56</text>
     </g>
    </g>
    <g id="ytick_7">
     <g id="line2d_28">
      <path d="M 73.872 166.513416
L 750.384 166.513416
" clip-path="url(#p5b2e30ddfc)" style="fill: none; stroke: #e6ebef; stroke-width: 0.8; stroke-linecap: square"/>
     </g>
     <g id="line2d_29">
      <g>
       <use xlink:href="#m8b213929a2" x="73.872" y="166.513416" style="fill: #6c7b89; stroke: #6c7b89; stroke-width: 0.8"/>
      </g>
     </g>
     <g id="text_23">
      <text style="font-size: 11px; font-family: 'DejaVu Sans'; text-anchor: end; fill: #6c7b89" x="67.372" y="170.692556" transform="rotate(-0 67.372 170.692556)">0.58</text>
     </g>
    </g>
    <g id="ytick_8">
     <g id="line2d_30">
      <path d="M 73.872 139.64371
L 750.384 139.64371
" clip-path="url(#p5b2e30ddfc)" style="fill: none; stroke: #e6ebef; stroke-width: 0.8; stroke-linecap: square"/>
     </g>
     <g id="line2d_31">
      <g>
       <use xlink:href="#m8b213929a2" x="73.872" y="139.64371" style="fill: #6c7b89; stroke: #6c7b89; stroke-width: 0.8"/>
      </g>
     </g>
     <g id="text_24">
      <text style="font-size: 11px; font-family: 'DejaVu Sans'; text-anchor: end; fill: #6c7b89" x="67.372" y="143.822851" transform="rotate(-0 67.372 143.822851)">0.60</text>
     </g>
    </g>
    <g id="ytick_9">
     <g id="line2d_32">
      <path d="M 73.872 112.774005
L 750.384 112.774005
" clip-path="url(#p5b2e30ddfc)" style="fill: none; stroke: #e6ebef; stroke-width: 0.8; stroke-linecap: square"/>
     </g>
     <g id="line2d_33">
      <g>
       <use xlink:href="#m8b213929a2" x="73.872" y="112.774005" style="fill: #6c7b89; stroke: #6c7b89; stroke-width: 0.8"/>
      </g>
     </g>
     <g id="text_25">
      <text style="font-size: 11px; font-family: 'DejaVu Sans'; text-anchor: end; fill: #6c7b89" x="67.372" y="116.953146" transform="rotate(-0 67.372 116.953146)">0.62</text>
     </g>
    </g>
    <g id="text_26">
     <text style="font-size: 11px; font-family: 'DejaVu Sans'; text-anchor: middle; fill: #172b3a" x="30.592156" y="220.32" transform="rotate(-90 30.592156 220.32)">LDS-v2</text>
    </g>
   </g>
   <g id="line2d_34">
    <path d="M 73.872 255.183442
L 750.384 255.183442
" clip-path="url(#p5b2e30ddfc)" style="fill: none; stroke-dasharray: 5.2,3.9; stroke-dashoffset: 0; stroke: #6c7b89; stroke-width: 1.3"/>
   </g>
   <g id="patch_3">
    <path d="M 73.872 345.6
L 73.872 95.04
" style="fill: none; stroke: #ced6de; stroke-width: 0.8; stroke-linejoin: miter; stroke-linecap: square"/>
   </g>
   <g id="patch_4">
    <path d="M 73.872 345.6
L 750.384 345.6
" style="fill: none; stroke: #ced6de; stroke-width: 0.8; stroke-linejoin: miter; stroke-linecap: square"/>
   </g>
   <g id="line2d_35">
    <path d="M 91.91232 255.183442
L 137.01312 255.183442
L 137.01312 221.193265
L 182.11392 221.193265
L 182.11392 221.193265
L 227.21472 221.193265
L 227.21472 221.193265
L 272.31552 221.193265
L 272.31552 221.193265
L 317.41632 221.193265
L 317.41632 221.193265
L 362.51712 221.193265
L 362.51712 192.442681
L 407.61792 192.442681
L 407.61792 176.052161
L 452.71872 176.052161
L 452.71872 176.052161
L 497.81952 176.052161
L 497.81952 162.214263
L 542.92032 162.214263
L 542.92032 162.214263
L 588.02112 162.214263
L 588.02112 162.214263
L 633.12192 162.214263
L 633.12192 162.214263
L 678.22272 162.214263
L 678.22272 162.214263
L 723.32352 162.214263
L 723.32352 162.214263
L 741.36384 162.214263
L 741.36384 162.214263
" clip-path="url(#p5b2e30ddfc)" style="fill: none; stroke: #176caa; stroke-width: 2.6; stroke-linecap: square"/>
   </g>
   <g id="patch_5">
    <path d="M 577.343946 129.641854
Q 538.507593 145.548835 499.671239 161.455817
" style="fill: none; stroke: #176caa; stroke-linecap: round"/>
   </g>
   <g id="text_27">
    <text style="font-weight: 700; font-size: 11px; font-family: 'DejaVu Sans'; fill: #176caa" transform="translate(547.4304 112.279082)">Best: 0.5832</text>
    <text style="font-weight: 700; font-size: 11px; font-family: 'DejaVu Sans'; fill: #176caa" transform="translate(547.4304 124.596676)">+0.0692 vs. baseline</text>
   </g>
   <g id="text_28">
    <text style="font-size: 10px; font-family: 'DejaVu Sans'; text-anchor: end; fill: #6c7b89" x="727.8336" y="249.073299" transform="rotate(-0 727.8336 249.073299)">Baseline 0.5140</text>
   </g>
   <g id="PathCollection_1">
    <defs>
     <path id="mb290b9002d" d="M 0 3.807887
C 1.009863 3.807887 1.978501 3.406664 2.692582 2.692582
C 3.406664 1.978501 3.807887 1.009863 3.807887 0
C 3.807887 -1.009863 3.406664 -1.978501 2.692582 -2.692582
C 1.978501 -3.406664 1.009863 -3.807887 0 -3.807887
C -1.009863 -3.807887 -1.978501 -3.406664 -2.692582 -2.692582
C -3.406664 -1.978501 -3.807887 -1.009863 -3.807887 0
C -3.807887 1.009863 -3.406664 1.978501 -2.692582 2.692582
C -1.978501 3.406664 -1.009863 3.807887 0 3.807887
z
" style="stroke: #ffffff"/>
    </defs>
    <g clip-path="url(#p5b2e30ddfc)">
     <use xlink:href="#mb290b9002d" x="137.01312" y="221.193265" style="fill: #8699aa; stroke: #ffffff"/>
     <use xlink:href="#mb290b9002d" x="182.11392" y="318.730295" style="fill: #8699aa; stroke: #ffffff"/>
     <use xlink:href="#mb290b9002d" x="227.21472" y="264.453491" style="fill: #8699aa; stroke: #ffffff"/>
     <use xlink:href="#mb290b9002d" x="272.31552" y="238.792922" style="fill: #8699aa; stroke: #ffffff"/>
     <use xlink:href="#mb290b9002d" x="317.41632" y="258.810853" style="fill: #8699aa; stroke: #ffffff"/>
     <use xlink:href="#mb290b9002d" x="362.51712" y="192.442681" style="fill: #8699aa; stroke: #ffffff"/>
     <use xlink:href="#mb290b9002d" x="407.61792" y="176.052161" style="fill: #8699aa; stroke: #ffffff"/>
     <use xlink:href="#mb290b9002d" x="452.71872" y="295.219303" style="fill: #8699aa; stroke: #ffffff"/>
     <use xlink:href="#mb290b9002d" x="497.81952" y="162.214263" style="fill: #8699aa; stroke: #ffffff"/>
     <use xlink:href="#mb290b9002d" x="542.92032" y="278.022692" style="fill: #8699aa; stroke: #ffffff"/>
     <use xlink:href="#mb290b9002d" x="588.02112" y="188.546574" style="fill: #8699aa; stroke: #ffffff"/>
     <use xlink:href="#mb290b9002d" x="633.12192" y="218.90934" style="fill: #8699aa; stroke: #ffffff"/>
     <use xlink:href="#mb290b9002d" x="678.22272" y="183.306981" style="fill: #8699aa; stroke: #ffffff"/>
     <use xlink:href="#mb290b9002d" x="723.32352" y="211.923217" style="fill: #8699aa; stroke: #ffffff"/>
    </g>
   </g>
   <g id="PathCollection_2">
    <defs>
     <path id="mc276c28e57" d="M 0 3.872983
C 1.027127 3.872983 2.012324 3.464901 2.738613 2.738613
C 3.464901 2.012324 3.872983 1.027127 3.872983 0
C 3.872983 -1.027127 3.464901 -2.012324 2.738613 -2.738613
C 2.012324 -3.464901 1.027127 -3.872983 0 -3.872983
C -1.027127 -3.872983 -2.012324 -3.464901 -2.738613 -2.738613
C -3.464901 -2.012324 -3.872983 -1.027127 -3.872983 0
C -3.872983 1.027127 -3.464901 2.012324 -2.738613 2.738613
C -2.012324 3.464901 -1.027127 3.872983 0 3.872983
z
" style="stroke: #6c7b89; stroke-width: 1.6"/>
    </defs>
    <g clip-path="url(#p5b2e30ddfc)">
     <use xlink:href="#mc276c28e57" x="91.91232" y="255.183442" style="fill: #ffffff; stroke: #6c7b89; stroke-width: 1.6"/>
    </g>
   </g>
   <g id="PathCollection_3">
    <defs>
     <path id="mcd8d3f2deb" d="M 0 4.062019
C 1.07726 4.062019 2.110543 3.634019 2.872281 2.872281
C 3.634019 2.110543 4.062019 1.07726 4.062019 0
C 4.062019 -1.07726 3.634019 -2.110543 2.872281 -2.872281
C 2.110543 -3.634019 1.07726 -4.062019 0 -4.062019
C -1.07726 -4.062019 -2.110543 -3.634019 -2.872281 -2.872281
C -3.634019 -2.110543 -4.062019 -1.07726 -4.062019 0
C -4.062019 1.07726 -3.634019 2.110543 -2.872281 2.872281
C -2.110543 3.634019 -1.07726 4.062019 0 4.062019
z
" style="stroke: #ffffff"/>
    </defs>
    <g clip-path="url(#p5b2e30ddfc)">
     <use xlink:href="#mcd8d3f2deb" x="137.01312" y="221.193265" style="fill: #176caa; stroke: #ffffff"/>
    </g>
   </g>
   <g id="PathCollection_4">
    <g clip-path="url(#p5b2e30ddfc)">
     <use xlink:href="#mcd8d3f2deb" x="362.51712" y="192.442681" style="fill: #176caa; stroke: #ffffff"/>
    </g>
   </g>
   <g id="PathCollection_5">
    <g clip-path="url(#p5b2e30ddfc)">
     <use xlink:href="#mcd8d3f2deb" x="407.61792" y="176.052161" style="fill: #176caa; stroke: #ffffff"/>
    </g>
   </g>
   <g id="PathCollection_6">
    <g clip-path="url(#p5b2e30ddfc)">
     <use xlink:href="#mcd8d3f2deb" x="497.81952" y="162.214263" style="fill: #176caa; stroke: #ffffff"/>
    </g>
   </g>
  </g>
  <g id="text_29">
   <text style="font-weight: 700; font-size: 19px; font-family: 'DejaVu Sans'; text-anchor: start; fill: #172b3a" x="73.872" y="23.76" transform="rotate(-0 73.872 23.76)">Gemma 4 31B autoresearch progress</text>
  </g>
  <g id="text_30">
   <text style="font-size: 12px; font-family: 'DejaVu Sans'; text-anchor: start; fill: #6c7b89" x="73.872" y="46.656" transform="rotate(-0 73.872 46.656)">Full-train LDS-v2 · 144 trajectories per evaluation</text>
  </g>
  <g id="text_31">
   <text style="font-size: 9.5px; font-family: 'DejaVu Sans'; text-anchor: start; fill: #6c7b89" x="73.872" y="400.032" transform="rotate(-0 73.872 400.032)">14 completed candidate evaluations; ordered by saved completion timestamps.</text>
  </g>
  <g id="text_32">
   <text style="font-size: 9.5px; font-family: 'DejaVu Sans'; text-anchor: start; fill: #6c7b89" x="73.872" y="414.72" transform="rotate(-0 73.872 414.72)">Includes retries and evaluations completed after the controller stopped.</text>
  </g>
  <g id="legend_1">
   <g id="PathCollection_7">
    <g>
     <use xlink:href="#mb290b9002d" x="86.8236" y="78.608109" style="fill: #8699aa; stroke: #ffffff"/>
    </g>
   </g>
   <g id="text_33">
    <text style="font-size: 10.5px; font-family: 'DejaVu Sans'; text-anchor: start" x="105.7236" y="81.364359" transform="rotate(-0 105.7236 81.364359)">Candidate score</text>
   </g>
   <g id="line2d_36">
    <path d="M 211.950787 77.689359
L 222.450787 77.689359
L 222.450787 77.689359
L 232.950787 77.689359
L 232.950787 77.689359
" style="fill: none; stroke: #176caa; stroke-width: 2.6; stroke-linecap: square"/>
   </g>
   <g id="text_34">
    <text style="font-size: 10.5px; font-family: 'DejaVu Sans'; text-anchor: start" x="241.350787" y="81.364359" transform="rotate(-0 241.350787 81.364359)">Best score so far</text>
   </g>
   <g id="line2d_37">
    <path d="M 350.1636 77.689359
L 360.6636 77.689359
L 371.1636 77.689359
" style="fill: none; stroke-dasharray: 5.2,3.9; stroke-dashoffset: 0; stroke: #6c7b89; stroke-width: 1.3"/>
   </g>
   <g id="text_35">
    <text style="font-size: 10.5px; font-family: 'DejaVu Sans'; text-anchor: start" x="379.5636" y="81.364359" transform="rotate(-0 379.5636 81.364359)">No-tools ledger baseline</text>
   </g>
  </g>
 </g>
 <defs>
  <clipPath id="p5b2e30ddfc">
   <rect x="73.872" y="95.04" width="676.512" height="250.56"/>
  </clipPath>
 </defs>
</svg>
